<svg width="116" height="120" viewBox="0 0 116 120" xmlns="http://www.w3.org/2000/svg"><title>Browserslist logo</title><g fill-rule="evenodd"><path d="M85.414 16.218c.31-.087.618-.162.925-.226l.91 1.114a26.74 26.74 0 0 0-.185.784c-.7.123-1.422.324-2.162.6.137-.751.308-1.509.512-2.272zm-19.69 21.105c-6.302 9.997-9.774 20.335-8.757 25.915 11.828 1.932 22.767 1.54 32.768-.708 7.74-1.74 14.343-4.449 19.74-7.613 1.122-.659 2.17-1.494 2.798-2.2-5.821-1.167-13.625-5.244-19.117-10.609-6.738-6.581-9.899-14.623-8.254-23.619-5.999 2.231-13.18 9.32-19.178 18.834zm21.891-21.525c-6.47 21.189 16.462 33.474 25.527 35.047 3.637.631.452 3.975-2.656 5.797-8.339 4.89-27.452 13.232-55.129 8.351-4.265-12.543 16.646-47.69 32.258-49.195z" fill-rule="nonzero"/><path d="M81.088 43.16a4 4 0 1 0 3.072-3.072 2.501 2.501 0 1 1-3.072 3.073zM110 55a6 6 0 1 0-6-6c4.056 2.935 9.922 2.342 6 6z"/><path d="M55.591 119.576c1.38-15.783-3.734-22.945-12.801-37.257-9.068-14.312-5.2-40.608 19.425-38.454 39.868 3.488 24.058 62.492-6.624 75.711z"/><path d="M34.5 113.641c6.946-14.24 4.738-22.76 1.401-39.37C32.565 57.66 45.6 34.497 67.817 45.333c35.97 17.544.065 66.963-33.316 68.308z"/><path d="M16.987 100.603c11.587-10.805 12.578-19.55 15.416-36.253 2.839-16.704 23.308-33.657 40.167-15.58 27.293 29.27-23.937 62.539-55.583 51.832z"/><path d="M5.182 82.295c14.69-5.935 18.75-13.744 27.385-28.321 8.635-14.577 33.82-23.069 43.08-.15C90.64 90.932 30.89 103.632 5.183 82.295z"/><path d="M.884 60.733c15.84-.277 22.429-6.112 35.715-16.626 13.286-10.514 39.842-9.416 40.273 15.3C77.57 99.42 17.237 89.864.884 60.732z"/><path d="M4.357 39.2c14.887 5.418 23.13 2.332 39.301-2.723 16.171-5.054 40.57 5.488 32.115 28.716C62.086 102.8 9.184 72.257 4.357 39.2z"/><path d="M15.58 20.385C27.539 30.779 36.34 30.85 53.248 31.927 70.156 33.004 89.156 51.59 72.94 70.245c-26.257 30.204-64.7-17.268-57.36-49.86z"/><path d="M32.572 6.717C40.01 20.705 48.201 23.927 63.6 30.99c15.4 7.065 26.478 31.225 4.652 42.83C32.916 92.609 14.04 34.514 32.572 6.717z"/><path d="M53.519.178c1.93 15.725 8.423 21.668 20.268 33.782C85.632 46.074 87.316 72.599 62.78 75.612 23.059 80.489 26.256 19.488 53.519.178z"/><path d="M75.296 1.585c-3.833 15.373.098 23.247 6.815 38.802 6.717 15.554-1.216 40.921-25.201 34.94-38.832-9.68-13.986-65.485 18.386-73.742z"/><path d="M95.236 10.62c-21.438 16.255-9.131 27.992-9.131 59.054 0 28.443-14.212 17.38-34.46 3.202-32.783-22.955 10.41-66.148 43.591-62.255z"/></g></svg>