<svg viewBox="0 0 16 16" xmlns="http://www.w3.org/2000/svg"><title>Browserslist icon</title><g fill-rule="evenodd"><path d="M11.212 1.978a2.43 2.43 0 0 1 .248-.085l.22.27a4.626 4.626 0 0 0-.04.198c-.168.04-.347.114-.534.217.023-.2.058-.4.106-.6zM6.53 9.318c3.074.471 5.591-.119 7.49-1.232.032-.018.063-.038.094-.059-1.75-.628-3.29-2.998-3.008-5.45-1.914 1.05-4.667 5.09-4.576 6.74zm5.24-7.485c-.959 3.138 1.553 5.593 2.896 5.826.539.094.067.589-.393.859-1.236.724-4.067 1.96-8.167 1.237-.631-1.858 3.351-7.7 5.664-7.922z" fill-rule="nonzero"/><circle cx="10.75" cy="6.25" r="1"/><circle cx="14.25" cy="7.75" r="1"/><path d="M7.97 2.768C7.663 2.128 7.5 1.444 7.5.5c-1.121.603-2.023 1.721-2.594 2.984-.637-.35-1.173-.82-1.725-1.608-.566 1.123-.668 2.537-.422 3.885-.717.076-1.422-.003-2.32-.33.184 1.26.927 2.492 1.92 3.462-.545.478-1.17.82-2.099 1.069.864.917 2.16 1.497 3.513 1.726-.173.695-.489 1.327-1.1 2.055 1.24.256 2.64-.015 3.883-.608.258.67.362 1.37.28 2.318 1.783-.768 3.164-2.773 3.63-4.743.08-.246.132-.561.154-.956.02-.25.023-.496.009-.736-.07-3.191-1.288-3.975 1.15-7.19-1.254-.148-2.622.243-3.808.94z"/></g></svg>