<svg width="257" height="257" fill="none" xmlns="http://www.w3.org/2000/svg"><circle cx="128.025" cy="128" r="128" fill="#FFD539"/><path d="M207.322 126.359c-19.107 15.921-57.016 21.227-74.881 22.543-3.726-27.749-5.742-62.663 33.624-79.179 5.067 28.498 30.124 41.487 42.045 43.993l-.788 12.643Z" fill="#fff"/><path fill-rule="evenodd" clip-rule="evenodd" d="M138.621 114.927c0 11.95 2.78 21.713 7.372 29.486 18.441-2.369 37.408-7.059 54.646-17.317 5.499-3.177 3.881-10.481-1.391-12.962-12.889-5.384-30.214-18.038-35.562-40.58-14.464 8.22-25.065 22.429-25.065 41.373Zm75.422-46.092c-13.924-5.203-30.529-4.264-44.609 1.85 4.422 21.251 20.835 33.083 32.61 37.872 3.254-2.833 8.316-4.91 12.806-2.347 9.688 7.924.703 19.043-5.521 22.556-19.278 10.88-38.451 17.796-59.462 21.239 16.103 19.962 45.808 23.014 64.176 14.156-3.011 11.918-13.711 21.998-31.046 25.334-.325 5.217 5.587 16.91 10.912 21.548-11.966 4.482-25.769-1.607-33.386-6.388-2.914 4.124-4.189 16.708-4.189 24.58-8.99 0-20.815-13.053-23.71-18.039-4.218 2.465-11.462 15.245-12.772 22.668-11.352-6.113-15.209-20.127-14.819-26.376-5.047 3.554-19.675 12.404-26.438 15.46-3.28-7.641-1.89-17.226 0-27.045-2.842 1.502-23.8 3.441-32.175 1.502 4.226-4.803 9.965-15.598 12.5-20.614-8.904-.555-24.67-6.215-32.253-13.935 6.453-2.873 12.764-7.013 19.753-14.004l-.426-.227c-8.877-4.732-22.066-11.763-25.234-23.896 8.321-.593 18.473-1.751 23.777-4.148-6.76-3.912-17.87-16.269-15.62-31.115 5.523 2.663 17.258 4.84 22.95 3.75-4.943-10.908-8.245-21.444-3.38-35.983 5.251 5.979 15.405 11.604 19.71 13.153-1.122-10.735 3.867-30.468 10.505-35.78 2.743 6.127 9.746 16.04 14.41 18.454 1.157-8.052 11.57-26.973 20.726-29.513 0 6.546 3.658 18.342 6.595 21.942 6.85-7.12 30.005-18.94 48.285-14.878-6.154 4.45-9.673 8.687-11.302 12.783 13.868 0 36.724 4.49 56.627 25.441Zm-51.22 31.216c-4.466.828-6.666-5.3-4.493-8.52-6.638 1.248-10.747 8.581-8.049 14.897 2.342 5.483 8.718 8.015 14.242 5.655 5.524-2.359 8.104-8.717 5.762-14.2a10.699 10.699 0 0 0-4.471-5.06c1.131 2.66.225 6.63-2.991 7.228Z" fill="#1E1E1E"/></svg>